<!-- icon666.com - MILLIONS vector ICONS FREE -->
<svg xmlns="http://www.w3.org/2000/svg" version="1.1" viewBox="0 0 512 512">
  <g id="surface1">
    <path
      d="M 256 91 C 231.097656 91 211 112.097656 211 137 L 211 167 C 211 175.402344 217.597656 182 226 182 L 286 182 C 294.402344 182 301 175.402344 301 167 L 301 137 C 301 112.097656 280.902344 91 256 91 Z M 256 91 "
      style=" stroke:none;fill-rule:nonzero;fill:rgb(100%,42.352941%,42.352941%);fill-opacity:1;"></path>
    <path
      d="M 286 182 L 256 182 L 256 91 C 280.902344 91 301 112.097656 301 137 L 301 167 C 301 175.402344 294.402344 182 286 182 Z M 286 182 "
      style=" stroke:none;fill-rule:nonzero;fill:rgb(100%,28.627451%,28.627451%);fill-opacity:1;"></path>
    <path
      d="M 512 362 L 512 437 C 512 445.402344 505.402344 452 497 452 L 15 452 C 6.597656 452 0 445.402344 0 437 L 0 362 L 30 347 L 0 332 L 0 197 C 0 172.097656 21.097656 152 46 152 L 256 152 L 418.699219 272 L 437 272 C 473.300781 272 503.597656 297.800781 510.5 332 C 511.398438 336.800781 482 341.902344 482 347 Z M 512 362 "
      style=" stroke:none;fill-rule:nonzero;fill:rgb(87.058824%,92.54902%,94.509804%);fill-opacity:1;"></path>
    <path
      d="M 512 362 L 512 437 C 512 445.402344 505.402344 452 497 452 L 256 452 L 256 152 L 418.699219 272 L 437 272 C 473.300781 272 503.597656 297.800781 510.5 332 C 511.398438 336.800781 482 341.902344 482 347 Z M 512 362 "
      style=" stroke:none;fill-rule:nonzero;fill:rgb(77.647059%,88.627451%,90.588235%);fill-opacity:1;"></path>
    <path
      d="M 418.71875 272 L 397.230469 186.070312 C 392.21875 166.019531 374.261719 152 353.578125 152 L 256 152 L 256 272 Z M 418.71875 272 "
      style=" stroke:none;fill-rule:nonzero;fill:rgb(40.784314%,32.941176%,30.980392%);fill-opacity:1;"></path>
    <path
      d="M 166 242 L 151 242 L 151 227 C 151 218.710938 144.289062 212 136 212 C 127.710938 212 121 218.710938 121 227 L 121 242 L 106 242 C 97.710938 242 91 248.710938 91 257 C 91 265.289062 97.710938 272 106 272 L 121 272 L 121 287 C 121 295.289062 127.710938 302 136 302 C 144.289062 302 151 295.289062 151 287 L 151 272 L 166 272 C 174.289062 272 181 265.289062 181 257 C 181 248.710938 174.289062 242 166 242 Z M 166 242 "
      style=" stroke:none;fill-rule:nonzero;fill:rgb(100%,28.627451%,28.627451%);fill-opacity:1;"></path>
    <path
      d="M 271 15 L 271 46 C 271 54.402344 264.402344 61 256 61 C 247.597656 61 241 54.402344 241 46 L 241 15 C 241 6.597656 247.597656 0 256 0 C 264.402344 0 271 6.597656 271 15 Z M 271 15 "
      style=" stroke:none;fill-rule:nonzero;fill:rgb(100%,85.490196%,26.666667%);fill-opacity:1;"></path>
    <path
      d="M 340.859375 36.140625 C 335 30.28125 325.507812 30.28125 319.648438 36.140625 L 298.421875 57.367188 C 292.5625 63.226562 292.5625 72.71875 298.421875 78.578125 C 304.28125 84.4375 313.773438 84.4375 319.632812 78.578125 L 340.859375 57.351562 C 346.71875 51.492188 346.71875 42 340.859375 36.140625 Z M 340.859375 36.140625 "
      style=" stroke:none;fill-rule:nonzero;fill:rgb(93.333333%,74.901961%,0%);fill-opacity:1;"></path>
    <path
      d="M 192.351562 36.140625 C 186.492188 30.28125 177 30.28125 171.140625 36.140625 C 165.28125 42 165.28125 51.492188 171.140625 57.351562 L 192.367188 78.578125 C 198.226562 84.4375 207.71875 84.4375 213.578125 78.578125 C 219.4375 72.71875 219.4375 63.226562 213.578125 57.367188 Z M 192.351562 36.140625 "
      style=" stroke:none;fill-rule:nonzero;fill:rgb(100%,85.490196%,26.666667%);fill-opacity:1;"></path>
    <path
      d="M 121 392 C 88 392 61 419 61 452 C 61 485 88 512 121 512 C 154 512 181 485 181 452 C 181 419 154 392 121 392 Z M 121 392 "
      style=" stroke:none;fill-rule:nonzero;fill:rgb(40.784314%,32.941176%,30.980392%);fill-opacity:1;"></path>
    <path
      d="M 121 422 C 104.5 422 91 435.5 91 452 C 91 468.5 104.5 482 121 482 C 137.5 482 151 468.5 151 452 C 151 435.5 137.5 422 121 422 Z M 121 422 "
      style=" stroke:none;fill-rule:nonzero;fill:rgb(77.647059%,88.627451%,90.588235%);fill-opacity:1;"></path>
    <path
      d="M 392 392 C 359 392 332 419 332 452 C 332 485 359 512 392 512 C 425 512 452 485 452 452 C 452 419 425 392 392 392 Z M 392 392 "
      style=" stroke:none;fill-rule:nonzero;fill:rgb(32.54902%,26.27451%,24.705882%);fill-opacity:1;"></path>
    <path
      d="M 392 422 C 375.5 422 362 435.5 362 452 C 362 468.5 375.5 482 392 482 C 408.5 482 422 468.5 422 452 C 422 435.5 408.5 422 392 422 Z M 392 422 "
      style=" stroke:none;fill-rule:nonzero;fill:rgb(55.686275%,72.941176%,77.254902%);fill-opacity:1;"></path>
    <path
      d="M 512 347 L 512 362 L 0 362 L 0 332 L 510.5 332 C 511.398438 336.800781 512 341.902344 512 347 Z M 512 347 "
      style=" stroke:none;fill-rule:nonzero;fill:rgb(100%,28.627451%,28.627451%);fill-opacity:1;"></path>
    <path
      d="M 256 61 L 256 0 C 264.402344 0 271 6.597656 271 15 L 271 46 C 271 54.402344 264.402344 61 256 61 Z M 256 61 "
      style=" stroke:none;fill-rule:nonzero;fill:rgb(93.333333%,74.901961%,0%);fill-opacity:1;"></path>
    <path
      d="M 512 347 L 512 362 L 256 362 L 256 332 L 510.5 332 C 511.398438 336.800781 512 341.902344 512 347 Z M 512 347 "
      style=" stroke:none;fill-rule:nonzero;fill:rgb(100%,9.803922%,23.921569%);fill-opacity:1;"></path>
  </g>
</svg>